<svg xmlns="http://www.w3.org/2000/svg" viewBox="0 0 800 208" width="800" height="208">
  <defs>
    <linearGradient id="bg" x1="0%" y1="0%" x2="100%" y2="100%">
      <stop offset="0%" style="stop-color:#fde68a"/>
      <stop offset="100%" style="stop-color:#d97706"/>
    </linearGradient>
    <linearGradient id="overlay" x1="0%" y1="0%" x2="0%" y2="100%">
      <stop offset="0%" style="stop-color:rgba(0,0,0,0)"/>
      <stop offset="100%" style="stop-color:rgba(0,0,0,0.55)"/>
    </linearGradient>
  </defs>
  <rect width="800" height="208" fill="url(#bg)"/>
  <circle cx="650" cy="50" r="110" fill="rgba(255,255,255,0.08)"/>
  <circle cx="700" cy="170" r="55" fill="rgba(255,255,255,0.06)"/>
  <!-- flame shape -->
  <path d="M700 60 C700 60 720 80 720 100 C720 115 710 125 700 125 C690 125 680 115 680 100 C680 80 700 60 700 60 Z" fill="rgba(255,255,255,0.22)"/>
  <path d="M700 75 C700 75 712 88 712 100 C712 108 706 114 700 114 C694 114 688 108 688 100 C688 88 700 75 700 75 Z" fill="rgba(255,255,255,0.18)"/>
  <rect width="800" height="208" fill="url(#overlay)"/>
  <text x="40" y="155" font-family="system-ui, -apple-system, sans-serif" font-size="11" font-weight="600" letter-spacing="3" fill="rgba(255,255,255,0.75)">🔥 ATTITUDE</text>
  <text x="40" y="185" font-family="system-ui, -apple-system, sans-serif" font-size="26" font-weight="800" fill="white">Your mindset is everything</text>
</svg>
